<svg viewBox="0 0 400 400" xmlns="http://www.w3.org/2000/svg" width="400" height="400">
  <defs>
    <radialGradient id="goldGrad" cx="40%" cy="35%" r="65%">
      <stop offset="0%" stop-color="#f5c842"/>
      <stop offset="100%" stop-color="#b88200"/>
    </radialGradient>
    <radialGradient id="blueGrad" cx="36%" cy="32%" r="70%">
      <stop offset="0%" stop-color="#3a46b5"/>
      <stop offset="100%" stop-color="#16195e"/>
    </radialGradient>
    <radialGradient id="globeGrad" cx="33%" cy="28%" r="70%">
      <stop offset="0%" stop-color="#283899"/>
      <stop offset="100%" stop-color="#0e1455"/>
    </radialGradient>
    <clipPath id="gc">
      <circle cx="200" cy="200" r="72"/>
    </clipPath>
    <path id="topArc" d="M 50.119,194.731 A 150,150 0 0,1 349.881,194.731"/>
    <path id="botArc" d="M 56.118,194.895 A 144,144 0 0,0 343.882,194.895"/>
  </defs>

  <circle cx="200" cy="200" r="198" fill="url(#goldGrad)"/>
  <circle cx="200" cy="200" r="190" fill="none" stroke="#fffacc" stroke-width="0.8" opacity="0.4"/>
  <circle cx="200" cy="200" r="185" fill="url(#blueGrad)"/>
  <circle cx="200" cy="200" r="174" fill="none" stroke="#EBB011" stroke-width="1.8" stroke-dasharray="5,3" opacity="0.8"/>
  <circle cx="200" cy="200" r="168" fill="none" stroke="#EBB011" stroke-width="0.7" opacity="0.4"/>

  <text x="26" y="207" font-size="20" fill="#EBB011" text-anchor="middle">★</text>
  <text x="374" y="207" font-size="20" fill="#EBB011" text-anchor="middle">★</text>

  <text font-family="Arial, Helvetica, sans-serif" font-size="15.8" fill="#EBB011" font-weight="bold" letter-spacing="0.45">
    <textPath href="#topArc" startOffset="50%" text-anchor="middle">OXFORD INT'L EDUCATION CENTRE &amp; CONSULTANCY</textPath>
  </text>

  <text font-family="Arial, Helvetica, sans-serif" font-size="15" fill="#EBB011" font-weight="bold" letter-spacing="2.4">
    <textPath href="#botArc" startOffset="50%" text-anchor="middle">SUKEDHARA, KATHMANDU</textPath>
  </text>

  <circle cx="200" cy="200" r="72" fill="url(#globeGrad)"/>
  <g clip-path="url(#gc)">
    <line x1="200" y1="128" x2="200" y2="272" stroke="#4858cc" stroke-width="1.2" opacity="0.65"/>
    <line x1="128" y1="200" x2="272" y2="200" stroke="#4858cc" stroke-width="1.2" opacity="0.65"/>
    <ellipse cx="200" cy="160.40" rx="60.13" ry="12.03" fill="none" stroke="#5060cc" stroke-width="1" opacity="0.6"/><ellipse cx="200" cy="184.16" rx="70.24" ry="14.05" fill="none" stroke="#5060cc" stroke-width="1" opacity="0.6"/><ellipse cx="200" cy="215.84" rx="70.24" ry="14.05" fill="none" stroke="#5060cc" stroke-width="1" opacity="0.6"/><ellipse cx="200" cy="239.60" rx="60.13" ry="12.03" fill="none" stroke="#5060cc" stroke-width="1" opacity="0.6"/>
    <ellipse cx="200" cy="200" rx="21.60" ry="72" fill="none" stroke="#5060cc" stroke-width="1" opacity="0.6"/><ellipse cx="200" cy="200" rx="46.80" ry="72" fill="none" stroke="#5060cc" stroke-width="1" opacity="0.6"/>
  </g>
  <circle cx="200" cy="200" r="72" fill="none" stroke="#6878e0" stroke-width="1.8"/>

  <polygon points="200.00,142.00 250.23,229.00 149.77,229.00" fill="rgba(235,176,17,0.08)" stroke="#EBB011" stroke-width="2.2" stroke-linejoin="round"/>
  <polygon points="250.23,171.00 200.00,258.00 149.77,171.00" fill="rgba(235,176,17,0.08)" stroke="#EBB011" stroke-width="2.2" stroke-linejoin="round"/>

  <circle cx="200" cy="200" r="7" fill="#EBB011"/>
  <circle cx="200" cy="200" r="3.5" fill="#fffacc"/>
  <circle cx="200.00" cy="127.00" r="13.5" fill="#1a2068" stroke="#EBB011" stroke-width="2.2"/>
  <text x="200.00" y="132.30" font-family="Arial Black, Arial, sans-serif" font-size="14" font-weight="900" fill="#EBB011" text-anchor="middle">O</text>
  <circle cx="263.22" cy="163.50" r="13.5" fill="#1a2068" stroke="#EBB011" stroke-width="2.2"/>
  <text x="263.22" y="168.80" font-family="Arial Black, Arial, sans-serif" font-size="14" font-weight="900" fill="#EBB011" text-anchor="middle">X</text>
  <circle cx="263.22" cy="236.50" r="13.5" fill="#1a2068" stroke="#EBB011" stroke-width="2.2"/>
  <text x="263.22" y="241.80" font-family="Arial Black, Arial, sans-serif" font-size="14" font-weight="900" fill="#EBB011" text-anchor="middle">F</text>
  <circle cx="200.00" cy="273.00" r="13.5" fill="#1a2068" stroke="#EBB011" stroke-width="2.2"/>
  <text x="200.00" y="278.30" font-family="Arial Black, Arial, sans-serif" font-size="14" font-weight="900" fill="#EBB011" text-anchor="middle">O</text>
  <circle cx="136.78" cy="236.50" r="13.5" fill="#1a2068" stroke="#EBB011" stroke-width="2.2"/>
  <text x="136.78" y="241.80" font-family="Arial Black, Arial, sans-serif" font-size="14" font-weight="900" fill="#EBB011" text-anchor="middle">R</text>
  <circle cx="136.78" cy="163.50" r="13.5" fill="#1a2068" stroke="#EBB011" stroke-width="2.2"/>
  <text x="136.78" y="168.80" font-family="Arial Black, Arial, sans-serif" font-size="14" font-weight="900" fill="#EBB011" text-anchor="middle">D</text>

</svg>
